<mxfile host="app.diagrams.net" agent="Mozilla/5.0 (Windows NT 10.0; Win64; x64) AppleWebKit/537.36 (KHTML, like Gecko) Chrome/130.0.0.0 Safari/537.36" version="24.8.0">
  <diagram name="Page-1" id="Ts7-ZAnGod0rwGZINcZH">
    <mxGraphModel dx="794" dy="446" grid="1" gridSize="10" guides="1" tooltips="1" connect="1" arrows="1" fold="1" page="1" pageScale="1" pageWidth="850" pageHeight="1100" math="0" shadow="0">
      <root>
        <mxCell id="0" />
        <mxCell id="1" parent="0" />
        <mxCell id="yQlLAEXD2l8nc-6WrxBY-1" value="Start" style="whiteSpace=wrap;strokeWidth=4;shadow=1;sketch=1;curveFitting=1;jiggle=2;labelBackgroundColor=default;labelBorderColor=none;textShadow=1;fontSize=24;" vertex="1" parent="1">
          <mxGeometry x="308" y="180" width="217" height="49" as="geometry" />
        </mxCell>
        <mxCell id="yQlLAEXD2l8nc-6WrxBY-2" value="Log into eSAKSHI Portal" style="whiteSpace=wrap;strokeWidth=4;shadow=1;sketch=1;curveFitting=1;jiggle=2;labelBackgroundColor=default;labelBorderColor=none;textShadow=1;fontSize=24;" vertex="1" parent="1">
          <mxGeometry x="242" y="279" width="343" height="49" as="geometry" />
        </mxCell>
        <mxCell id="yQlLAEXD2l8nc-6WrxBY-3" value="Click Inbox" style="whiteSpace=wrap;strokeWidth=4;shadow=1;sketch=1;curveFitting=1;jiggle=2;labelBackgroundColor=default;labelBorderColor=none;textShadow=1;fontSize=24;" vertex="1" parent="1">
          <mxGeometry x="286" y="377" width="269" height="49" as="geometry" />
        </mxCell>
        <mxCell id="yQlLAEXD2l8nc-6WrxBY-4" value="Select Desired Work" style="whiteSpace=wrap;strokeWidth=4;shadow=1;sketch=1;curveFitting=1;jiggle=2;labelBackgroundColor=default;labelBorderColor=none;textShadow=1;fontSize=24;" vertex="1" parent="1">
          <mxGeometry x="253" y="476" width="342" height="49" as="geometry" />
        </mxCell>
        <mxCell id="yQlLAEXD2l8nc-6WrxBY-5" value="Check All Details" style="whiteSpace=wrap;strokeWidth=4;shadow=1;sketch=1;curveFitting=1;jiggle=2;labelBackgroundColor=default;labelBorderColor=none;textShadow=1;fontSize=24;" vertex="1" parent="1">
          <mxGeometry x="265" y="575" width="300" height="49" as="geometry" />
        </mxCell>
        <mxCell id="yQlLAEXD2l8nc-6WrxBY-6" value="Approve / Reject Work with comments" style="whiteSpace=wrap;strokeWidth=4;shadow=1;sketch=1;curveFitting=1;jiggle=2;labelBackgroundColor=default;labelBorderColor=none;textShadow=1;fontSize=24;" vertex="1" parent="1">
          <mxGeometry x="225" y="673" width="400" height="66" as="geometry" />
        </mxCell>
        <mxCell id="yQlLAEXD2l8nc-6WrxBY-7" value="Click Submit" style="whiteSpace=wrap;strokeWidth=4;shadow=1;sketch=1;curveFitting=1;jiggle=2;labelBackgroundColor=default;labelBorderColor=none;textShadow=1;fontSize=24;" vertex="1" parent="1">
          <mxGeometry x="281" y="790" width="244" height="49" as="geometry" />
        </mxCell>
        <mxCell id="yQlLAEXD2l8nc-6WrxBY-8" value="End" style="whiteSpace=wrap;strokeWidth=4;shadow=1;sketch=1;curveFitting=1;jiggle=2;labelBackgroundColor=default;labelBorderColor=none;textShadow=1;fontSize=24;" vertex="1" parent="1">
          <mxGeometry x="312" y="888" width="193" height="49" as="geometry" />
        </mxCell>
        <mxCell id="yQlLAEXD2l8nc-6WrxBY-9" value="" style="curved=1;startArrow=none;endArrow=block;exitX=0.5;exitY=0.99;entryX=0.5;entryY=-0.01;rounded=0;strokeWidth=4;shadow=1;sketch=1;curveFitting=1;jiggle=2;labelBackgroundColor=default;labelBorderColor=none;textShadow=1;fontSize=24;" edge="1" parent="1" source="yQlLAEXD2l8nc-6WrxBY-1" target="yQlLAEXD2l8nc-6WrxBY-2">
          <mxGeometry relative="1" as="geometry">
            <Array as="points" />
          </mxGeometry>
        </mxCell>
        <mxCell id="yQlLAEXD2l8nc-6WrxBY-10" value="" style="curved=1;startArrow=none;endArrow=block;exitX=0.5;exitY=0.99;entryX=0.5;entryY=0.01;rounded=0;strokeWidth=4;shadow=1;sketch=1;curveFitting=1;jiggle=2;labelBackgroundColor=default;labelBorderColor=none;textShadow=1;fontSize=24;" edge="1" parent="1" source="yQlLAEXD2l8nc-6WrxBY-2" target="yQlLAEXD2l8nc-6WrxBY-3">
          <mxGeometry relative="1" as="geometry">
            <Array as="points" />
          </mxGeometry>
        </mxCell>
        <mxCell id="yQlLAEXD2l8nc-6WrxBY-11" value="" style="curved=1;startArrow=none;endArrow=block;exitX=0.5;exitY=1;entryX=0.5;entryY=0;rounded=0;strokeWidth=4;shadow=1;sketch=1;curveFitting=1;jiggle=2;labelBackgroundColor=default;labelBorderColor=none;textShadow=1;fontSize=24;" edge="1" parent="1" source="yQlLAEXD2l8nc-6WrxBY-3" target="yQlLAEXD2l8nc-6WrxBY-4">
          <mxGeometry relative="1" as="geometry">
            <Array as="points" />
          </mxGeometry>
        </mxCell>
        <mxCell id="yQlLAEXD2l8nc-6WrxBY-12" value="" style="curved=1;startArrow=none;endArrow=block;exitX=0.5;exitY=0.99;entryX=0.5;entryY=-0.01;rounded=0;strokeWidth=4;shadow=1;sketch=1;curveFitting=1;jiggle=2;labelBackgroundColor=default;labelBorderColor=none;textShadow=1;fontSize=24;" edge="1" parent="1" source="yQlLAEXD2l8nc-6WrxBY-4" target="yQlLAEXD2l8nc-6WrxBY-5">
          <mxGeometry relative="1" as="geometry">
            <Array as="points" />
          </mxGeometry>
        </mxCell>
        <mxCell id="yQlLAEXD2l8nc-6WrxBY-13" value="" style="curved=1;startArrow=none;endArrow=block;exitX=0.5;exitY=0.99;entryX=0.5;entryY=0.01;rounded=0;strokeWidth=4;shadow=1;sketch=1;curveFitting=1;jiggle=2;labelBackgroundColor=default;labelBorderColor=none;textShadow=1;fontSize=24;" edge="1" parent="1" source="yQlLAEXD2l8nc-6WrxBY-5" target="yQlLAEXD2l8nc-6WrxBY-6">
          <mxGeometry relative="1" as="geometry">
            <Array as="points" />
          </mxGeometry>
        </mxCell>
        <mxCell id="yQlLAEXD2l8nc-6WrxBY-14" value="" style="curved=1;startArrow=none;endArrow=block;exitX=0.5;exitY=1.01;entryX=0.5;entryY=-0.01;rounded=0;strokeWidth=4;shadow=1;sketch=1;curveFitting=1;jiggle=2;labelBackgroundColor=default;labelBorderColor=none;textShadow=1;fontSize=24;" edge="1" parent="1" source="yQlLAEXD2l8nc-6WrxBY-6" target="yQlLAEXD2l8nc-6WrxBY-7">
          <mxGeometry relative="1" as="geometry">
            <Array as="points" />
          </mxGeometry>
        </mxCell>
        <mxCell id="yQlLAEXD2l8nc-6WrxBY-15" value="" style="curved=1;startArrow=none;endArrow=block;exitX=0.5;exitY=0.99;entryX=0.5;entryY=0.01;rounded=0;strokeWidth=4;shadow=1;sketch=1;curveFitting=1;jiggle=2;labelBackgroundColor=default;labelBorderColor=none;textShadow=1;fontSize=24;" edge="1" parent="1" source="yQlLAEXD2l8nc-6WrxBY-7" target="yQlLAEXD2l8nc-6WrxBY-8">
          <mxGeometry relative="1" as="geometry">
            <Array as="points" />
          </mxGeometry>
        </mxCell>
        <mxCell id="yQlLAEXD2l8nc-6WrxBY-16" value="Actor" style="shape=umlActor;verticalLabelPosition=bottom;verticalAlign=top;html=1;outlineConnect=0;" vertex="1" parent="1">
          <mxGeometry x="60" y="60" width="50" height="60" as="geometry" />
        </mxCell>
        <mxCell id="yQlLAEXD2l8nc-6WrxBY-17" value="&lt;font style=&quot;font-size: 25px;&quot;&gt;&lt;b&gt;&lt;i&gt;&lt;u&gt;IA Main - Approver Process&lt;/u&gt;&lt;/i&gt;&lt;/b&gt;&lt;/font&gt;" style="shape=process;whiteSpace=wrap;html=1;backgroundOutline=1;" vertex="1" parent="1">
          <mxGeometry x="210" y="60" width="460" height="60" as="geometry" />
        </mxCell>
        <mxCell id="yQlLAEXD2l8nc-6WrxBY-18" style="edgeStyle=orthogonalEdgeStyle;rounded=0;orthogonalLoop=1;jettySize=auto;html=1;exitX=0.5;exitY=0.5;exitDx=0;exitDy=0;exitPerimeter=0;entryX=0;entryY=0.5;entryDx=0;entryDy=0;fontSize=17;" edge="1" parent="1" source="yQlLAEXD2l8nc-6WrxBY-16" target="yQlLAEXD2l8nc-6WrxBY-17">
          <mxGeometry relative="1" as="geometry" />
        </mxCell>
      </root>
    </mxGraphModel>
  </diagram>
</mxfile>
